<svg xmlns="http://www.w3.org/2000/svg" viewBox="0 0 800 800" width="800" height="800">
  <defs>
    <linearGradient id="road" x1="0" y1="0" x2="1" y2="0">
      <stop offset="0" stop-color="#23253a"/><stop offset="0.5" stop-color="#2d3046"/><stop offset="1" stop-color="#1c1e30"/>
    </linearGradient>
    <radialGradient id="gold" cx="35%" cy="30%" r="70%">
      <stop offset="0" stop-color="#ffe9a0"/><stop offset="0.55" stop-color="#f2b229"/><stop offset="1" stop-color="#a86d06"/>
    </radialGradient>
    <radialGradient id="steel" cx="35%" cy="30%" r="70%">
      <stop offset="0" stop-color="#8a8fa6"/><stop offset="0.55" stop-color="#555a70"/><stop offset="1" stop-color="#3b3f52"/>
    </radialGradient>
    <radialGradient id="egg" cx="38%" cy="32%" r="70%">
      <stop offset="0" stop-color="#fff6c8"/><stop offset="0.45" stop-color="#ffc53d"/><stop offset="1" stop-color="#b9780a"/>
    </radialGradient>
    <radialGradient id="glow" cx="50%" cy="50%" r="50%">
      <stop offset="0" stop-color="#ffc53d" stop-opacity="0.55"/><stop offset="1" stop-color="#ffc53d" stop-opacity="0"/>
    </radialGradient>
    <linearGradient id="flame" x1="0" y1="1" x2="0" y2="0">
      <stop offset="0" stop-color="#ff3d0a"/><stop offset="0.6" stop-color="#ff9f1a"/><stop offset="1" stop-color="#ffe066" stop-opacity="0"/>
    </linearGradient>
  </defs>
  <rect width="800" height="800" fill="url(#road)"/>
  <rect x="0" y="0" width="120" height="800" fill="#363b5c"/>
  <rect x="112" y="0" width="10" height="800" fill="#c9cde0"/>
  <g stroke="#ffffff" stroke-opacity="0.45" stroke-width="6" stroke-dasharray="44 40">
    <line x1="290" y1="0" x2="290" y2="800"/><line x1="460" y1="0" x2="460" y2="800"/><line x1="630" y1="0" x2="630" y2="800"/>
  </g>
  <!-- cars -->
  <g transform="translate(345 70)"><rect width="60" height="108" rx="16" fill="#3d8bfd"/><rect x="7" y="58" width="46" height="22" rx="6" fill="#141626" opacity="0.85"/><rect x="7" y="20" width="46" height="16" rx="5" fill="#141626" opacity="0.75"/></g>
  <g transform="translate(680 560)"><rect width="60" height="108" rx="16" fill="#a56bff"/><rect x="7" y="58" width="46" height="22" rx="6" fill="#141626" opacity="0.85"/><rect x="7" y="20" width="46" height="16" rx="5" fill="#141626" opacity="0.75"/></g>
  <!-- manholes -->
  <circle cx="205" cy="430" r="62" fill="url(#gold)" stroke="#1d1f2c" stroke-width="8"/>
  <circle cx="375" cy="430" r="62" fill="url(#gold)" stroke="#1d1f2c" stroke-width="8"/>
  <circle cx="545" cy="430" r="62" fill="url(#steel)" stroke="#1d1f2c" stroke-width="8"/>
  <circle cx="715" cy="430" r="62" fill="url(#steel)" stroke="#1d1f2c" stroke-width="8"/>
  <!-- barriers over the cleared lanes -->
  <g transform="translate(150 300)"><rect width="110" height="30" rx="6" fill="#f6a21a"/><path d="M14 0 L32 0 L22 30 L4 30 Z M50 0 L68 0 L58 30 L40 30 Z M86 0 L104 0 L94 30 L76 30 Z" fill="#45434c"/></g>
  <g transform="translate(320 300)"><rect width="110" height="30" rx="6" fill="#f6a21a"/><path d="M14 0 L32 0 L22 30 L4 30 Z M50 0 L68 0 L58 30 L40 30 Z M86 0 L104 0 L94 30 L76 30 Z" fill="#45434c"/></g>
  <!-- taxi coming down the next lane -->
  <g transform="translate(515 250)"><rect width="62" height="108" rx="15" fill="#ffc21a" stroke="#c98d00" stroke-width="3"/><rect x="7" y="66" width="48" height="20" rx="6" fill="#2c3540"/><rect x="8" y="22" width="46" height="13" rx="5" fill="#2c3540"/><rect x="14" y="40" width="34" height="14" rx="3" fill="#1d1d22"/></g>
  <g font-family="Arial, sans-serif" font-weight="700" font-size="30" text-anchor="middle">
    <text x="205" y="441" fill="#3a2500">1.11x</text>
    <text x="375" y="441" fill="#3a2500">1.27x</text>
    <text x="545" y="441" fill="#f2f3fb">1.46x</text>
  </g>
  <!-- hen -->
  <g transform="translate(300 268) scale(2.6)">
    <path d="M14 34 L5 27 L9 37 L4 40 L13 41 Z" fill="#e9e9f2"/>
    <ellipse cx="30" cy="38" rx="17" ry="14" fill="#ffffff"/>
    <path d="M22 38 Q30 46 39 37 Q32 41 22 38 Z" fill="#dcdce8"/>
    <circle cx="43" cy="24" r="10" fill="#ffffff"/>
    <path d="M38 15 Q40 9 43 13 Q45 8 48 13 Q51 11 50 17 Z" fill="#ff3b4f"/>
    <path d="M52 24 L60 27 L52 30 Z" fill="#ffad1f"/>
    <path d="M50 31 Q52 36 48 35 Z" fill="#ff3b4f"/>
    <circle cx="46" cy="22.5" r="2.1" fill="#1b1d2b"/>
    <path d="M25 51 L24 60 M24 60 L20 62 M24 60 L27 62 M34 51 L35 60 M35 60 L31 62 M35 60 L38 62" stroke="#ffad1f" stroke-width="2.4" stroke-linecap="round" fill="none"/>
  </g>
  <!-- golden egg -->
  <circle cx="640" cy="150" r="110" fill="url(#glow)"/>
  <path d="M640 80 C612 80 595 125 595 152 C595 180 615 196 640 196 C665 196 685 180 685 152 C685 125 668 80 640 80 Z" fill="url(#egg)"/>
  <ellipse cx="623" cy="118" rx="9" ry="16" fill="#ffffff" opacity="0.5" transform="rotate(20 623 118)"/>
</svg>
